<?xml version="1.0" standalone="no"?>
<!DOCTYPE svg PUBLIC "-//W3C//DTD SVG 20010904//EN"
 "http://www.w3.org/TR/2001/REC-SVG-20010904/DTD/svg10.dtd">
<svg version="1.0" xmlns="http://www.w3.org/2000/svg"
 width="80.000000pt" height="52.000000pt" viewBox="0 0 80.000000 52.000000"
 preserveAspectRatio="xMidYMid meet">

<g transform="translate(0.000000,52.000000) scale(0.100000,-0.100000)"
fill="#000000" stroke="none">
<path d="M402 449 c-2 -39 -6 -48 -24 -52 -25 -7 -38 7 -38 40 0 12 -5 25 -10
28 -10 6 -7 -20 5 -62 4 -11 -16 -23 -36 -23 -6 0 -15 14 -20 30 -6 17 -15 30
-20 30 -5 0 -2 -14 7 -32 15 -30 15 -32 -1 -44 -15 -11 -20 -10 -36 9 -10 12
-18 17 -19 11 0 -5 5 -15 12 -22 9 -9 8 -15 -8 -26 -17 -13 -21 -12 -38 2 -18
16 -18 16 -5 -8 8 -14 15 -27 16 -29 2 -2 11 3 20 11 97 85 293 91 378 12 15
-14 28 -24 29 -22 0 2 7 13 14 26 13 23 4 30 -15 11 -21 -21 -35 1 -18 28 9
14 14 27 12 30 -3 2 -10 -5 -17 -16 -12 -24 -38 -28 -46 -7 -3 8 0 24 6 36 6
12 9 24 6 28 -4 3 -12 -9 -18 -26 -13 -33 -23 -38 -47 -23 -10 6 -12 20 -7 47
5 28 4 35 -3 24 -6 -8 -11 -24 -11 -36 0 -28 -6 -32 -35 -26 -21 3 -25 11 -28
51 l-3 46 -2 -46z"/>
<path d="M308 351 c-53 -21 -108 -58 -108 -72 0 -6 15 1 33 14 57 43 81 51
167 53 94 3 137 -10 183 -53 15 -15 27 -22 27 -15 0 6 -15 22 -33 36 -74 56
-181 71 -269 37z"/>
<path d="M314 304 c-20 -47 -10 -87 28 -119 42 -35 91 -34 128 4 16 16 32 40
35 53 7 28 -18 98 -35 98 -7 0 -5 -9 4 -22 41 -58 0 -142 -69 -142 -69 0 -110
84 -69 142 9 13 11 22 4 22 -6 0 -18 -16 -26 -36z"/>
<path d="M374 276 c-10 -26 4 -48 28 -44 17 2 23 10 23 28 0 18 -6 26 -23 28
-13 2 -25 -3 -28 -12z"/>
<path d="M182 250 c3 -8 -1 -23 -10 -32 -17 -20 -3 -25 16 -6 19 19 44 -9 31
-34 -6 -11 -8 -22 -6 -25 3 -2 10 5 16 16 10 17 15 19 31 9 17 -11 17 -15 5
-45 -8 -18 -11 -33 -7 -33 4 0 13 13 19 29 9 24 15 29 33 24 20 -5 22 -11 17
-46 -3 -22 -2 -36 3 -31 5 5 10 20 12 34 2 19 10 26 30 28 25 3 27 0 31 -40
l4 -43 1 43 c2 40 4 42 32 42 24 0 30 -4 30 -22 0 -13 5 -30 11 -38 7 -11 8
-4 3 24 -5 27 -3 41 7 47 24 15 38 10 45 -16 3 -14 10 -25 14 -25 5 0 3 14 -3
30 -10 25 -9 33 3 40 22 14 28 12 35 -10 3 -11 11 -20 17 -20 6 0 3 12 -7 26
-14 22 -15 28 -4 35 8 5 21 1 33 -9 18 -16 18 -16 7 6 -7 13 -10 30 -7 38 8
22 -4 17 -25 -10 -26 -32 -112 -74 -170 -82 -69 -9 -150 18 -206 69 -26 23
-44 35 -41 27z"/>
</g>
</svg>
