<?xml version="1.0" standalone="no"?>
<!DOCTYPE svg PUBLIC "-//W3C//DTD SVG 20010904//EN"
 "http://www.w3.org/TR/2001/REC-SVG-20010904/DTD/svg10.dtd">
<svg version="1.0" xmlns="http://www.w3.org/2000/svg"
 width="256.000000pt" height="166.000000pt" viewBox="0 0 256.000000 166.000000"
 preserveAspectRatio="xMidYMid meet">

<g transform="translate(0.000000,166.000000) scale(0.100000,-0.100000)"
fill="#000000" stroke="none">
<path d="M1277 1553 c-4 -3 -7 -68 -7 -144 l0 -138 -32 -5 c-18 -3 -54 -8 -79
-11 l-45 -6 -23 126 c-13 69 -27 128 -33 131 -27 17 -28 -19 -5 -138 l24 -126
-70 -20 -69 -20 -39 85 c-21 47 -39 88 -39 93 0 16 -31 33 -41 23 -7 -7 5 -43
36 -113 25 -56 45 -103 43 -105 -2 -1 -29 -14 -62 -29 -67 -30 -58 -34 -117
57 -31 46 -59 62 -59 31 0 -8 18 -42 40 -74 22 -32 40 -61 40 -63 0 -2 -25
-21 -56 -42 l-55 -38 -42 41 c-70 69 -92 51 -31 -24 30 -36 34 -47 24 -59 -12
-15 -7 -45 7 -45 4 0 42 27 83 60 90 72 241 149 365 186 75 22 115 27 247 32
172 5 254 -7 378 -55 79 -31 217 -120 259 -168 37 -43 66 -48 57 -10 -5 21 2
36 34 74 22 26 40 53 40 59 0 25 -30 10 -69 -34 l-40 -46 -29 21 c-54 38 -54
41 -7 115 25 38 42 73 39 77 -13 22 -35 4 -70 -56 -22 -35 -42 -65 -47 -65
-19 0 -118 64 -114 74 3 6 21 48 40 93 20 44 33 84 30 87 -18 18 -35 -3 -69
-85 -43 -101 -30 -95 -142 -63 -45 13 -51 18 -47 37 21 92 45 209 45 217 0 5
-8 10 -18 10 -16 0 -23 -18 -42 -112 -13 -62 -26 -117 -30 -121 -4 -5 -44 -5
-89 -2 l-81 8 0 127 c0 147 -7 180 -33 153z"/>
<path d="M1163 1170 c-173 -25 -383 -129 -492 -243 -32 -34 -35 -57 -7 -57 7
0 25 14 42 31 70 74 235 170 344 199 23 6 49 14 58 17 9 4 -5 -15 -31 -40 -72
-70 -102 -143 -102 -242 0 -67 5 -89 28 -136 32 -67 99 -131 165 -161 73 -33
189 -31 263 5 147 71 221 236 174 390 -19 63 -68 132 -117 164 -22 15 -36 29
-31 30 16 6 182 -46 236 -73 72 -37 165 -104 211 -154 27 -29 41 -39 49 -31
39 39 -154 194 -317 255 -131 50 -322 68 -473 46z m253 -78 c65 -33 101 -69
130 -129 23 -46 28 -69 27 -127 0 -84 -17 -128 -70 -186 -105 -118 -303 -122
-410 -9 -74 78 -98 215 -55 312 27 60 92 121 155 147 66 26 163 23 223 -8z"/>
<path d="M1234 911 c-19 -12 -37 -34 -43 -54 -32 -96 88 -169 160 -98 52 53
33 135 -38 162 -34 13 -44 12 -79 -10z"/>
<path d="M584 815 c-4 -8 1 -27 11 -41 17 -26 17 -27 -29 -73 -47 -48 -55 -64
-35 -77 7 -4 31 15 58 44 l46 51 53 -48 54 -49 -42 -60 c-27 -39 -40 -66 -36
-77 8 -23 20 -13 66 55 l40 59 60 -36 c33 -19 60 -36 60 -37 0 -1 -18 -42 -39
-91 -22 -49 -38 -92 -35 -97 14 -23 35 0 69 80 21 48 40 88 41 90 2 3 131 -37
142 -44 2 -1 -6 -50 -18 -110 -14 -73 -17 -111 -10 -118 18 -18 29 6 49 113
11 57 22 105 23 106 2 1 38 -2 81 -8 l77 -9 0 -130 c0 -118 2 -129 18 -126 15
3 17 19 20 129 l3 127 27 5 c15 3 54 9 88 12 l61 7 21 -108 c23 -111 34 -136
52 -118 7 7 3 46 -13 123 l-24 113 21 8 c12 4 45 17 74 29 l53 20 29 -67 c41
-93 53 -115 68 -120 21 -7 13 33 -23 118 -19 45 -35 83 -35 84 0 5 101 66 109
66 5 0 29 -31 55 -70 25 -38 50 -70 55 -70 25 0 18 26 -23 90 -26 39 -46 74
-46 78 0 5 15 23 34 41 l34 33 48 -56 c51 -60 61 -65 71 -40 3 10 -7 29 -29
52 -63 68 -63 68 -34 103 29 34 32 44 15 55 -6 3 -42 -25 -83 -64 -111 -110
-180 -158 -296 -207 -159 -67 -385 -86 -546 -45 -164 42 -323 140 -417 257
-53 66 -64 73 -73 48z"/>
</g>
</svg>
